# xmcd
#
# Track frame offsets: 
#        150
#        13503
#        28091
#        45888
#        55922
#        70190
#        82979
#        95637
#        112693
#        125778
#        138941
#        153732
#
# Disc length: 2257 seconds
#
# Revision: 2
# Processed by: cddbd v1.5.2PL0 Copyright (c) Steve Scherf et al.
# Submitted via: ExactAudioCopy v0.95b4
#
DISCID=9508cf0c
DTITLE=Doc and Merle Watson - Pickin' The Blues
DYEAR=1900
DGENRE=Country
TTITLE0=Mississippi Heavy Water Blues
TTITLE1=Sittin' Here Pickin' The Blues
TTITLE2=Stormy Weather
TTITLE3=Windy And Warm
TTITLE4=St. Louis Blues
TTITLE5=Jailhouse Blues
TTITLE6=Freight Train Blues
TTITLE7=Hobo Bill's Last Ride
TTITLE8=Carroll County Blues
TTITLE9=Blue Ridge Mountain Blues
TTITLE10=I'm A Stranger Here
TTITLE11=Honey Babe Blues
EXTD=
EXTT0=
EXTT1=
EXTT2=
EXTT3=
EXTT4=
EXTT5=
EXTT6=
EXTT7=
EXTT8=
EXTT9=
EXTT10=
EXTT11=
PLAYORDER=
